<?xml version="1.0" encoding="UTF-8"?>
<svg width="405px" height="405px" viewBox="0 0 405 405" version="1.1" xmlns="http://www.w3.org/2000/svg" xmlns:xlink="http://www.w3.org/1999/xlink">
    <title>Star-filled</title>
    <g id="Page-2" stroke="none" stroke-width="1" fill="none" fill-rule="evenodd">
        <g id="Group" fill="#2A2941" fill-rule="nonzero">
            <g id="Star">
                <path d="M314.818614,404.974114 C311.526542,404.974114 308.18459,404.139546 305.092037,402.47041 L202.938043,346.293553 C202.688644,346.137071 202.339485,346.137071 202.090085,346.293553 L99.936091,402.47041 C92.853148,406.382447 84.423448,405.704361 77.988944,400.801274 C71.554439,395.898187 68.362127,387.708989 69.708884,379.46763 L89.211917,260.489532 C89.261797,260.176569 89.162037,259.863606 88.962517,259.654964 L6.3115562,175.415758 C0.5753701,169.573782 -1.4198251,161.01946 1.024289,153.091064 C3.518283,145.162669 9.9527875,139.477174 17.8338085,138.277483 L132.058734,120.908037 C132.358013,120.855876 132.607412,120.699395 132.707172,120.386432 L183.784169,12.1533963 C187.325641,4.6422844 194.458464,0 202.489124,0 C210.519785,0 217.652608,4.6422844 221.194079,12.1533963 L272.271076,120.386432 C272.420716,120.647234 272.670115,120.855876 272.919515,120.908037 L387.14444,138.277483 C395.075341,139.477174 401.509845,145.162669 403.953959,153.091064 C406.447953,161.01946 404.402878,169.573782 398.666692,175.415758 L316.115491,259.707124 C315.915971,259.915766 315.816212,260.228729 315.866091,260.541692 L335.369124,379.51979 C336.715881,387.761149 333.523569,395.898187 327.089064,400.853434 C323.447833,403.56578 319.158163,404.974114 314.818614,404.974114 Z" id="Shape"></path>
            </g>
        </g>
    </g>
</svg>